<?xml version="1.0" standalone="no"?>
<!DOCTYPE svg PUBLIC "-//W3C//DTD SVG 20010904//EN"
 "http://www.w3.org/TR/2001/REC-SVG-20010904/DTD/svg10.dtd">
<svg version="1.0" xmlns="http://www.w3.org/2000/svg"
 width="860.000000pt" height="83.000000pt" viewBox="0 0 860.000000 83.000000"
 preserveAspectRatio="xMidYMid meet">

<g transform="translate(0.000000,83.000000) scale(0.100000,-0.100000)"
fill="#000000" stroke="none">
<path fill="#112d4e" d="M3510 411 c-74 -15 -127 -58 -155 -124 l-15 -37 -1446 0 c-1431 0
-1446 0 -1471 20 -34 26 -65 25 -91 -3 -29 -31 -28 -62 4 -93 29 -30 69 -27
93 6 13 20 36 20 1462 20 l1448 0 22 -50 c12 -28 35 -61 50 -75 66 -55 217
-53 281 4 27 24 31 34 31 74 l-1 47 90 0 90 0 79 -76 78 -76 98 38 98 39 -61
5 c-45 4 -72 13 -105 35 l-44 30 109 3 110 3 77 -77 c87 -86 72 -85 202 -24
l82 39 -50 1 c-33 0 -68 9 -105 28 l-55 27 105 3 105 3 109 -66 c153 -92 252
-118 360 -95 45 9 67 21 102 54 26 26 46 55 50 74 l7 32 1456 0 c1445 0 1456
0 1469 -20 16 -27 73 -27 97 0 57 63 -35 150 -95 90 -20 -20 -33 -20 -1472
-20 l-1453 0 -20 52 c-28 73 -80 108 -167 115 -118 10 -188 -36 -188 -123 l0
-44 -92 0 -93 0 -76 76 -76 75 -94 -37 c-52 -20 -97 -40 -101 -43 -4 -3 21 -6
56 -6 53 0 69 -4 106 -30 l43 -30 -107 -3 c-120 -3 -108 -8 -219 91 l-65 57
-98 -42 -98 -43 65 -6 c36 -4 87 -18 114 -30 l50 -24 -108 -3 -108 -3 -67 44
c-159 105 -283 142 -402 118z m193 -74 c39 -20 86 -48 102 -61 l30 -25 -75 0
c-47 0 -84 5 -100 14 -39 22 -144 16 -108 -6 7 -5 -25 -9 -79 -9 -84 0 -93 2
-93 19 0 24 35 68 74 93 50 31 156 21 249 -25z m1432 29 c35 -15 75 -67 75
-98 0 -16 -12 -18 -114 -18 -95 0 -115 3 -120 16 -18 46 2 79 59 99 51 18 58
18 100 1z m-1517 -208 c3 -30 -1 -40 -23 -54 -38 -25 -115 -30 -153 -10 -32
16 -62 61 -62 91 0 14 16 15 118 13 l117 -3 3 -37z m1322 27 c14 -8 45 -14 69
-15 34 0 42 3 37 15 -4 13 8 15 80 15 l86 0 -6 -26 c-29 -113 -158 -136 -318
-57 -46 23 -92 51 -103 62 -18 21 -18 21 56 21 45 -1 84 -6 99 -15z"/>
</g>
</svg>
